# xmcd
#
# Track frame offsets: 
#        150
#        17185
#        34611
#        52974
#        71488
#        91091
#        107484
#        124055
#        139019
#        159689
#        182416
#        200976
#
# Disc length: 2810 seconds
#
# Revision: 0
# Processed by: cddbd v1.5.1PL0 Copyright (c) Steve Scherf et al.
# Submitted via: ExactAudioCopy v0.95a3
#
DISCID=9d0af80c
DTITLE=Gáspár Laci - Hagyd meg nekem a dalt
DYEAR=2004
DGENRE=Pop
TTITLE0=Hagyd meg nekem a dalt
TTITLE1=A játéknak vége
TTITLE2=Lesz még nyár
TTITLE3=Miriam
TTITLE4=Elvarázsolt éj
TTITLE5=Sosem vagy egyedül
TTITLE6=Hull az elsárgult levél
TTITLE7=Kicsípted magad
TTITLE8=Egy percet kérek tõled
TTITLE9=Fülledt nyár (feat. Sub Bass Monster)
TTITLE10=Hagy meg nekem a dalt (Remix)
TTITLE11=Zene nélkül mit érek én (a TV2 felvétele)
EXTD=
EXTT0=
EXTT1=
EXTT2=
EXTT3=
EXTT4=
EXTT5=
EXTT6=
EXTT7=
EXTT8=
EXTT9=
EXTT10=
EXTT11=
PLAYORDER=
